<svg width="207" height="55" viewBox="0 0 207 55" fill="none" xmlns="http://www.w3.org/2000/svg" preserveAspectRatio="none">
<path d="M13.4248 52.6552C6.19591 49.9652 6.28875 40.3555 3.27672 30.9402C0.115002 22.1974 2.58147 12.3039 13.4248 8.26879C24.2681 4.23368 165.231 8.26875 181.496 6.25119C197.761 4.23362 199.568 13.5602 204.99 18.9404C210.411 24.3206 198.776 39.9404 194.776 45.9404C187.776 49.9404 161.616 50.6377 152.58 52.6552C143.544 54.6728 22.4608 56.0179 13.4248 52.6552Z" fill="url(#paint0_linear)"/>
<path d="M11.6484 46.685C4.41954 43.9949 4.51238 34.3853 1.50035 24.9699C-1.66137 16.2271 0.805107 6.33363 11.6484 2.29852C22.4917 -1.73658 163.454 2.29849 179.719 0.280924C195.984 -1.73664 201.713 9.97046 205.5 18.5C209.287 27.0298 197 33.9702 193 39.9702C186 43.9702 159.84 44.6674 150.804 46.685C141.768 48.7025 20.6845 50.0476 11.6484 46.685Z" fill="#FFF500"/>
<defs>
<linearGradient id="paint0_linear" x1="196.446" y1="25.5538" x2="184.943" y2="69.467" gradientUnits="userSpaceOnUse">
<stop stop-color="#F5EC47"/>
<stop offset="0.1076" stop-color="#DED549"/>
<stop offset="0.3013" stop-color="#AEA951"/>
<stop offset="0.5591" stop-color="#747554"/>
<stop offset="0.8676" stop-color="#414749"/>
<stop offset="1" stop-color="#2F3843"/>
</linearGradient>
</defs>
</svg>
