<svg width="160" height="52" viewBox="0 0 160 52" fill="none" xmlns="http://www.w3.org/2000/svg">
<path d="M130.898 1.46384C131.439 1.88883 131.903 2.37156 132.292 2.92474C133.285 4.34407 133.664 6.03132 133.439 7.96456H138.52L130.86 28.8491H138.514L146.178 7.96456H156.012L158.397 1.46384H130.898Z" fill="#F47216"/>
<path d="M123.088 10.1979C122.269 12.3875 120.797 13.7398 117.999 13.7398H117.987L116.539 13.7375L119.015 7.11668H120.424C122.999 7.11783 123.961 7.86503 123.088 10.1979ZM130.516 4.14984C129.256 2.35172 126.695 1.46825 122.682 1.46363H113.391L103.342 28.8431H111.877L115.531 19.2058C115.71 19.603 117.864 28.8431 117.864 28.8431H126.838C126.838 28.8431 125.205 22.0537 124.005 19.3097C123.697 18.6052 123.375 17.8153 122.945 17.1536C125.48 16.2205 129.151 14.2133 130.673 10.1493C131.608 7.65022 131.553 5.63153 130.516 4.14984Z" fill="#F47216"/>
<path d="M44.7419 1.44831H28.9162C26.4214 1.44831 23.9976 1.44831 21.8264 2.54081C19.6552 3.63562 17.7378 5.82293 16.2617 10.1987C15.9427 11.1399 15.7727 11.9495 15.7506 12.6528C15.7285 13.3584 15.8519 13.9589 16.1208 14.4798C16.4537 15.1149 16.9916 15.7143 17.6645 16.219C18.3385 16.7237 19.1453 17.1336 20.0138 17.397C20.0475 17.405 20.5039 17.5355 21.0569 17.6914C21.6087 17.8497 22.2536 18.0367 22.6611 18.1592C22.8998 18.2319 23.164 18.3266 23.4015 18.4687C23.6402 18.6084 23.8532 18.7966 23.9883 19.0576C24.0767 19.232 24.1245 19.4203 24.1291 19.6235C24.1349 19.8279 24.1 20.0474 24.0197 20.2795C23.8183 20.8742 23.5098 21.2565 22.9254 21.4909C22.3421 21.7242 21.4818 21.8004 20.1768 21.8097H3.89234L1.3172 28.8266H18.7483C20.3898 28.8266 23.3887 28.8266 26.27 27.6106C29.1525 26.3968 31.9163 23.9681 33.0862 19.1108C33.5263 17.2861 33.3901 15.7986 32.6695 14.6311C31.9454 13.4623 30.638 12.6158 28.7346 12.073C28.7346 12.073 28.3073 11.9506 27.8056 11.8074C27.3061 11.6654 26.7299 11.5025 26.4342 11.4171C25.9464 11.2785 25.5715 10.999 25.3503 10.6433C25.1303 10.2876 25.0639 9.8557 25.1885 9.41455C25.3201 8.95606 25.6356 8.58998 26.0931 8.33706C26.5518 8.08646 27.1536 7.94787 27.8568 7.94787H37.9886C38.0607 7.84509 38.1259 7.73422 38.197 7.63144C40.048 5.03415 42.2878 2.93231 44.7419 1.44831Z" fill="#F47216"/>
<path d="M52.1751 15.0107C49.8095 21.4329 48.0924 23.0497 45.5091 23.0497H45.5044C42.9863 23.0462 42.1051 21.4663 44.4602 15.0753C46.2192 10.3034 48.4964 7.25114 51.2531 7.25114H51.2543C53.8772 7.25461 54.4767 8.7617 52.1751 15.0107ZM60.2917 4.01291C58.9122 2.05542 56.5524 1.05993 53.2671 1.05762C51.1192 1.05762 49.0354 1.54728 47.0796 2.46193C44.2832 3.77385 41.75 5.96463 39.6801 8.86911C38.3366 10.7562 37.1853 12.9423 36.2831 15.3883C34.5857 20.0031 34.6032 23.7484 36.3413 26.2163C37.3261 27.6114 39.3728 29.2767 43.5347 29.2813H43.551C51.1332 29.2813 56.7934 24.3512 60.3779 14.6284C61.3244 12.0542 62.5735 7.25345 60.2917 4.01291Z" fill="#F47216"/>
<path d="M90.59 1.44831H74.4615C69.9527 1.44831 66.5952 3.71068 65.0108 7.94787L57.3506 28.8266H65.7419L69.6791 18.0933L77.0949 18.098L79.2044 12.3502L71.8119 12.3456L73.0028 9.01728C73.2508 8.42137 73.8434 7.94672 74.7107 7.94672C75.1938 7.94672 80.6386 7.94787 83.4559 7.94903C83.5281 7.84624 83.5945 7.73422 83.6655 7.63144C85.5153 5.03415 88.1359 2.93231 90.59 1.44831Z" fill="#F47216"/>
<path d="M97.9257 15.0107C95.5613 21.4329 93.8441 23.0497 91.2608 23.0497H91.2562C88.7369 23.0462 87.858 21.4663 90.2119 15.0753C91.9687 10.3034 94.2493 7.25114 97.0037 7.25114H97.0084C99.6277 7.25461 100.228 8.7617 97.9257 15.0107ZM106.042 4.01291C104.663 2.05542 102.303 1.05993 99.0177 1.05762C96.871 1.05762 94.786 1.54728 92.8313 2.46193C90.035 3.77385 87.5017 5.96463 85.4318 8.86911C84.0861 10.7562 82.937 12.9423 82.036 15.3883C80.3351 20.0031 80.3561 23.7484 82.0953 26.2163C83.0779 27.6114 85.1233 29.2767 89.2887 29.2813H89.3016C96.8861 29.2813 102.547 24.3512 106.128 14.6284C107.078 12.0542 108.325 7.25345 106.042 4.01291Z" fill="#F47216"/>
<path d="M11.0045 39.3294C11.1046 39.0557 11.1523 38.8097 11.1477 38.5938C11.1419 38.3755 11.0813 38.1953 10.9649 38.0521C10.8473 37.9089 10.675 37.7992 10.4445 37.7218C10.2152 37.6445 9.88456 37.6052 9.45498 37.6052H8.04634L6.75178 41.1368H8.30827C8.70875 41.1368 9.04869 41.0883 9.32343 40.9936C9.59934 40.8989 9.84614 40.7707 10.0638 40.6055C10.2839 40.4404 10.4725 40.2475 10.632 40.0281C10.7891 39.8064 10.9149 39.5742 11.0045 39.3294ZM9.57838 45.1499C9.69364 44.8335 9.74486 44.5517 9.72973 44.3034C9.71576 44.0551 9.63659 43.8461 9.4934 43.6798C9.35021 43.5112 9.136 43.3807 8.85311 43.2906C8.56672 43.1993 8.17207 43.1543 7.66216 43.1543H6.01137L4.59224 47.0196H6.60393C6.99276 47.0196 7.33386 46.9804 7.62723 46.8995C7.92177 46.8187 8.19535 46.6986 8.44798 46.5415C8.7006 46.3845 8.92296 46.1881 9.1197 45.9537C9.31528 45.7181 9.46779 45.4513 9.57838 45.1499ZM12.5051 45.0552C12.327 45.5379 12.0988 45.9768 11.8206 46.3694C11.5435 46.7598 11.2303 47.1074 10.8834 47.4077C10.5365 47.7102 10.1581 47.9689 9.75185 48.186C9.34206 48.4032 8.91597 48.5822 8.46777 48.7219C8.02305 48.8628 7.56204 48.9644 7.09055 49.0314C6.61674 49.0984 6.10567 49.1319 5.55385 49.1319H1.91116C1.67833 49.1319 1.50719 49.0637 1.39776 48.9263C1.28949 48.7889 1.29066 48.5683 1.40358 48.2599L5.75292 36.4076C5.86585 36.0992 6.0265 35.8775 6.23605 35.7401C6.4456 35.6038 6.66679 35.5357 6.89846 35.5357H10.3409C11.1814 35.5357 11.8671 35.605 12.3992 35.7459C12.9289 35.8868 13.3433 36.0981 13.6378 36.3822C13.9324 36.664 14.1058 37.0243 14.1582 37.4585C14.2118 37.8927 14.1291 38.4044 13.9126 38.9922C13.7927 39.3213 13.6355 39.632 13.4446 39.9218C13.2537 40.214 13.0325 40.4773 12.7833 40.7152C12.533 40.9543 12.2571 41.1645 11.9545 41.3458C11.6506 41.5283 11.327 41.6749 10.9812 41.7869C11.3444 41.8562 11.6576 41.9798 11.9219 42.1542C12.185 42.3297 12.3899 42.5561 12.5307 42.8321C12.6727 43.1093 12.7461 43.4338 12.7507 43.8045C12.7566 44.1764 12.6739 44.5933 12.5051 45.0552Z" fill="white"/>
<path d="M23.1751 38.1313H23.1646L19.1051 43.909H22.9923L23.1751 38.1313ZM25.8073 48.1023C25.8003 48.3541 25.7805 48.5539 25.7467 48.7006C25.7141 48.8472 25.6454 48.9581 25.5407 49.032C25.4359 49.1059 25.2811 49.151 25.0773 49.1694C24.8724 49.1856 24.5977 49.1948 24.2519 49.1948C23.8922 49.1948 23.6128 49.1891 23.4161 49.1787C23.2181 49.1694 23.0738 49.1475 22.9783 49.1163C22.884 49.0851 22.8258 49.0401 22.8037 48.9847C22.7827 48.9292 22.7734 48.8553 22.7793 48.7629L22.8607 46.0328H17.7128L15.8676 48.6902C15.8035 48.7883 15.7372 48.8703 15.6662 48.9373C15.5963 49.0043 15.5032 49.0574 15.3868 49.0944C15.2704 49.1325 15.1155 49.159 14.9223 49.1741C14.7313 49.1879 14.4822 49.1948 14.1795 49.1948C13.8547 49.1948 13.6044 49.1844 13.4286 49.1637C13.2529 49.1429 13.1446 49.0909 13.1038 49.0101C13.0619 48.9304 13.0794 48.8172 13.1539 48.6705C13.2296 48.5216 13.3541 48.3252 13.5299 48.0804L22.1797 36.019C22.267 35.9001 22.352 35.8042 22.4347 35.7315C22.5185 35.6564 22.6291 35.601 22.7676 35.5617C22.905 35.5236 23.0843 35.4993 23.3078 35.4889C23.5301 35.4774 23.8212 35.4716 24.1821 35.4716C24.5989 35.4716 24.9283 35.4774 25.1716 35.4889C25.4149 35.4993 25.5989 35.5236 25.7223 35.5617C25.8457 35.601 25.9225 35.6575 25.9551 35.7349C25.9865 35.8123 25.9994 35.9174 25.9924 36.0502L25.8073 48.1023Z" fill="white"/>
<path d="M40 48.1657C39.9406 48.3251 39.8603 48.4706 39.7567 48.5965C39.6554 48.7223 39.5402 48.8263 39.4144 48.9117C39.2887 48.9949 39.1525 49.0572 39.0081 49.0942C38.8626 49.1335 38.7241 49.1519 38.589 49.1519H37.4027C37.1571 49.1519 36.951 49.1277 36.7892 49.0792C36.6274 49.0295 36.4947 48.9406 36.3899 48.8113C36.2863 48.6819 36.2037 48.5064 36.1431 48.2858C36.0826 48.0664 36.029 47.78 35.9813 47.43L34.9021 41.0737C34.8427 40.6937 34.7915 40.2861 34.7484 39.8495C34.703 39.4118 34.6763 38.9857 34.6658 38.5722H34.6448C34.4865 39.0769 34.3247 39.5781 34.1547 40.0805C33.9847 40.5817 33.8031 41.0979 33.6064 41.6303L30.9963 48.7431C30.9719 48.8136 30.9288 48.8759 30.8694 48.9325C30.81 48.9891 30.7251 49.0353 30.6168 49.0734C30.5062 49.1127 30.3677 49.1427 30.1965 49.1635C30.0266 49.1843 29.8147 49.1958 29.5597 49.1958C29.3129 49.1958 29.1127 49.1843 28.9567 49.1635C28.803 49.1427 28.6866 49.1127 28.6098 49.0734C28.5318 49.0353 28.4852 48.9891 28.4701 48.9325C28.4561 48.8759 28.4619 48.8136 28.4875 48.7431L32.9707 36.5235C33.0918 36.1944 33.2793 35.9484 33.533 35.7821C33.788 35.6181 34.0569 35.5361 34.3398 35.5361H35.8323C36.1012 35.5361 36.3177 35.5592 36.4854 35.6042C36.6519 35.6493 36.7892 35.7255 36.894 35.8306C37.0011 35.9345 37.0826 36.0812 37.142 36.266C37.2013 36.4519 37.2491 36.6806 37.2817 36.9531L38.128 41.9237C38.1723 42.2251 38.2177 42.5219 38.2631 42.8117C38.3085 43.1028 38.3481 43.3938 38.383 43.6848C38.4179 43.9735 38.4505 44.2599 38.4808 44.5406C38.5134 44.8201 38.5401 45.1007 38.5646 45.3802H38.5751C38.7334 44.8905 38.9057 44.38 39.0908 43.8465C39.2759 43.3141 39.4563 42.806 39.6333 42.3244L41.9744 35.9461C41.9989 35.8745 42.0431 35.8121 42.1072 35.7555C42.1689 35.7013 42.2573 35.6516 42.3726 35.61C42.4867 35.5673 42.6287 35.5361 42.7975 35.5199C42.9663 35.5015 43.1782 35.4934 43.432 35.4934C43.6718 35.4934 43.8709 35.5015 44.0257 35.5199C44.1829 35.5361 44.2958 35.5673 44.3691 35.61C44.4413 35.6516 44.4856 35.7013 44.5007 35.7555C44.5158 35.8121 44.5089 35.8745 44.4832 35.9461L40 48.1657Z" fill="white"/>
<path d="M53.7891 48.7223C53.7612 48.7986 53.7158 48.8678 53.6553 48.9267C53.5947 48.9868 53.5028 49.0353 53.3794 49.0734C53.256 49.1127 53.0941 49.1427 52.8962 49.1635C52.6983 49.1843 52.455 49.1958 52.1651 49.1958C51.7053 49.1958 51.3816 49.1774 51.1942 49.1427C51.0056 49.1069 50.8799 49.0549 50.8182 48.9845C50.7542 48.914 50.7169 48.8309 50.7029 48.7316L48.9299 42.2805L46.562 48.7316C46.534 48.8101 46.4875 48.8748 46.4246 48.9325C46.3617 48.9891 46.2709 49.0353 46.1499 49.0734C46.0311 49.1127 45.8786 49.1427 45.6947 49.1635C45.5096 49.1843 45.2802 49.1958 45.0043 49.1958C44.7366 49.1958 44.5154 49.1843 44.3431 49.1635C44.1719 49.1427 44.0392 49.1127 43.9473 49.0734C43.8553 49.0353 43.7971 48.9891 43.7715 48.9325C43.7459 48.8748 43.7482 48.8101 43.7761 48.7316L48.4759 35.9253C48.5038 35.8468 48.5515 35.7809 48.6167 35.7255C48.6843 35.6689 48.7762 35.6239 48.8961 35.5881C49.0149 35.5534 49.1674 35.5257 49.356 35.5038C49.5434 35.483 49.7704 35.4714 50.0394 35.4714C50.3141 35.4714 50.5376 35.483 50.7064 35.5038C50.8741 35.5257 51.0068 35.5534 51.0988 35.5881C51.1919 35.6239 51.2489 35.6689 51.2699 35.7255C51.292 35.7809 51.2897 35.8468 51.2617 35.9253L49.1371 41.7146L55.2711 35.9345C55.355 35.8433 55.4423 35.7682 55.5354 35.7093C55.6262 35.6493 55.7356 35.6019 55.8625 35.5673C55.9883 35.5327 56.1408 35.5061 56.3235 35.4934C56.504 35.4784 56.7333 35.4714 57.0092 35.4714C57.291 35.4714 57.5203 35.483 57.6961 35.5038C57.8731 35.5257 58.0081 35.5557 58.1036 35.5939C58.199 35.632 58.2572 35.6793 58.2794 35.7348C58.3015 35.7913 58.298 35.8549 58.2724 35.9253C58.2281 36.0443 58.1525 36.1667 58.043 36.2926C57.9324 36.4173 57.7392 36.6171 57.4633 36.8896L51.9102 41.777L53.7542 47.9232C53.8043 48.2107 53.8276 48.4024 53.8241 48.496C53.8217 48.5918 53.8101 48.6669 53.7891 48.7223Z" fill="white"/>
<path d="M59.3705 48.7535C59.3449 48.8227 59.2995 48.8874 59.232 48.9428C59.1656 48.9994 59.0737 49.0445 58.9549 49.0791C58.835 49.1149 58.6848 49.1426 58.4997 49.1634C58.3158 49.1842 58.0853 49.1958 57.8105 49.1958C57.5416 49.1958 57.3216 49.1842 57.1493 49.1634C56.977 49.1426 56.8431 49.1149 56.7511 49.0791C56.658 49.0445 56.5986 48.9994 56.573 48.9428C56.5474 48.8874 56.5486 48.8227 56.5742 48.7535L61.2856 35.9137C61.3112 35.8432 61.3566 35.7809 61.423 35.7254C61.4905 35.6689 61.5836 35.6238 61.707 35.588C61.8304 35.5534 61.9818 35.5257 62.1669 35.5037C62.3508 35.4829 62.5766 35.4714 62.8456 35.4714C63.1203 35.4714 63.3427 35.4829 63.5126 35.5037C63.6803 35.5257 63.8118 35.5534 63.9038 35.588C63.9969 35.6238 64.0575 35.6689 64.0808 35.7254C64.1075 35.7809 64.1075 35.8432 64.0808 35.9137L59.3705 48.7535Z" fill="white"/>
<path d="M74.8699 48.1657C74.8106 48.3251 74.7302 48.4706 74.6266 48.5965C74.523 48.7223 74.4101 48.8263 74.2843 48.9117C74.1586 48.9949 74.0236 49.0572 73.8769 49.0942C73.7325 49.1335 73.5928 49.1519 73.4601 49.1519H72.2727C72.0259 49.1519 71.821 49.1277 71.6591 49.0792C71.4973 49.0295 71.3634 48.9406 71.2598 48.8113C71.1562 48.6819 71.0724 48.5064 71.013 48.2858C70.9525 48.0664 70.8989 47.78 70.85 47.43L69.772 41.0737C69.7138 40.6937 69.6614 40.2861 69.6183 39.8495C69.5729 39.4118 69.5462 38.9857 69.5357 38.5722H69.5147C69.3576 39.0769 69.1946 39.5781 69.0246 40.0805C68.8547 40.5817 68.6707 41.0979 68.4763 41.6303L65.8662 48.7431C65.8418 48.8136 65.7987 48.8759 65.7393 48.9325C65.6788 48.9891 65.595 49.0353 65.4855 49.0734C65.3773 49.1127 65.2364 49.1427 65.0676 49.1635C64.8953 49.1843 64.6846 49.1958 64.4296 49.1958C64.1828 49.1958 63.9826 49.1843 63.8266 49.1635C63.6718 49.1427 63.5565 49.1127 63.4785 49.0734C63.4005 49.0353 63.3563 48.9891 63.34 48.9325C63.326 48.8759 63.3318 48.8136 63.3574 48.7431L67.8407 36.5235C67.9606 36.1944 68.1492 35.9484 68.4041 35.7821C68.6579 35.6181 68.9257 35.5361 69.2086 35.5361H70.7022C70.97 35.5361 71.1888 35.5592 71.3553 35.6042C71.5218 35.6493 71.658 35.7255 71.7639 35.8306C71.871 35.9345 71.9537 36.0812 72.0119 36.266C72.0713 36.4519 72.1178 36.6806 72.1516 36.9531L72.9979 41.9237C73.0422 42.2251 73.0876 42.5219 73.133 42.8117C73.1772 43.1028 73.218 43.3938 73.2529 43.6848C73.2867 43.9735 73.3204 44.2599 73.3507 44.5406C73.3833 44.8201 73.4101 45.1007 73.4357 45.3802H73.445C73.6033 44.8905 73.7744 44.38 73.9607 43.8465C74.1446 43.3141 74.3263 42.806 74.5032 42.3244L76.8444 35.9461C76.8688 35.8745 76.913 35.8121 76.9771 35.7555C77.0388 35.7013 77.1273 35.6516 77.2425 35.61C77.3566 35.5673 77.4986 35.5361 77.6674 35.5199C77.8362 35.5015 78.0469 35.4934 78.3019 35.4934C78.5406 35.4934 78.7385 35.5015 78.8956 35.5199C79.0516 35.5361 79.1657 35.5673 79.2391 35.61C79.3112 35.6516 79.3555 35.7013 79.3706 35.7555C79.3857 35.8121 79.3799 35.8745 79.3531 35.9461L74.8699 48.1657Z" fill="white"/>
<path d="M93.7114 37.6477C93.6369 37.8509 93.5648 38.0265 93.4926 38.172C93.4204 38.3198 93.354 38.4376 93.2889 38.5254C93.226 38.6131 93.1655 38.6732 93.1061 38.709C93.0455 38.7448 92.985 38.7621 92.9221 38.7621C92.8302 38.7621 92.7056 38.6974 92.5461 38.5715C92.3878 38.4468 92.1654 38.3105 91.8825 38.1627C91.5962 38.0149 91.2411 37.8786 90.8196 37.7516C90.3959 37.6257 89.8743 37.5634 89.2527 37.5634C88.5879 37.5634 87.9453 37.6777 87.3271 37.9052C86.7066 38.1327 86.1292 38.4549 85.5948 38.8718C85.0605 39.2887 84.5832 39.7899 84.1641 40.3743C83.7461 40.9598 83.4062 41.6054 83.1454 42.3121C82.8602 43.0905 82.7124 43.7754 82.7042 44.3666C82.6961 44.9602 82.8055 45.4545 83.0337 45.853C83.2607 46.2537 83.6006 46.554 84.0512 46.7572C84.5029 46.9605 85.0465 47.0621 85.6822 47.0621C85.993 47.0621 86.3143 47.0263 86.6414 46.9582C86.9709 46.8866 87.2922 46.7826 87.6042 46.6417L88.7614 43.4901H86.1676C86.0396 43.4901 85.9686 43.4116 85.9569 43.2522C85.9441 43.0963 86.0081 42.8284 86.1467 42.4496C86.2188 42.2532 86.2875 42.0893 86.3539 41.9553C86.4191 41.8225 86.4866 41.7162 86.5518 41.6354C86.617 41.5546 86.6799 41.4957 86.7427 41.4564C86.8067 41.4183 86.8696 41.3987 86.9336 41.3987H91.5624C91.6753 41.3987 91.7696 41.4183 91.843 41.4564C91.9175 41.4957 91.9733 41.5522 92.0118 41.6308C92.0502 41.707 92.0688 41.8005 92.0641 41.9079C92.0595 42.0177 92.0316 42.1412 91.9792 42.281L89.9943 47.6926C89.9186 47.9017 89.8126 48.0865 89.6811 48.2447C89.5495 48.4029 89.3528 48.5265 89.0885 48.6177C88.8254 48.7089 88.5076 48.8025 88.1327 48.9006C87.7556 49 87.376 49.0831 86.986 49.1524C86.5972 49.2228 86.2107 49.276 85.8265 49.3106C85.4435 49.3453 85.0652 49.3637 84.6891 49.3637C83.596 49.3637 82.6728 49.2067 81.9231 48.896C81.1722 48.5842 80.6052 48.1327 80.2222 47.5414C79.8392 46.9489 79.6448 46.2271 79.6401 45.376C79.6331 44.5237 79.8299 43.5594 80.2245 42.4808C80.632 41.3663 81.171 40.3685 81.8334 39.4804C82.497 38.5946 83.2537 37.8417 84.1035 37.2215C84.9511 36.6025 85.8754 36.1279 86.8754 35.7987C87.8755 35.4696 88.9162 35.3044 89.9954 35.3044C90.5891 35.3044 91.1142 35.3449 91.5729 35.4269C92.0292 35.5065 92.4181 35.6036 92.7394 35.7202C93.0618 35.8345 93.318 35.9593 93.51 36.0921C93.6998 36.2272 93.8255 36.3404 93.8849 36.4397C93.9443 36.5378 93.9629 36.6753 93.9408 36.8543C93.9163 37.0333 93.8395 37.2977 93.7114 37.6477Z" fill="white"/>
</svg>
